<svg width="189" height="32" viewBox="0 0 189 32" fill="none" xmlns="http://www.w3.org/2000/svg">
<g clip-path="url(#clip0_14_4)">
<path d="M74.1003 3.25791C74.1003 2.50086 74.4011 1.77481 74.9364 1.2395C75.4717 0.704181 76.1978 0.403442 76.9549 0.403442C77.7119 0.403442 78.4379 0.704181 78.9733 1.2395C79.5086 1.77481 79.8093 2.50086 79.8093 3.25791C79.7817 3.99653 79.4689 4.6957 78.9366 5.2085C78.4043 5.72131 77.694 6.00781 76.9549 6.00781C76.2158 6.00781 75.5053 5.72131 74.973 5.2085C74.4407 4.6957 74.1279 3.99653 74.1003 3.25791" fill="#273B7D"/>
<path d="M119.138 22.2953C119.138 20.7111 120.414 19.431 121.986 19.431C122.745 19.431 123.473 19.7325 124.01 20.2693C124.547 20.8061 124.849 21.5342 124.849 22.2934C124.849 23.0525 124.547 23.7806 124.01 24.3174C123.473 24.8542 122.745 25.1558 121.986 25.1558C120.416 25.1558 119.138 23.8736 119.138 22.2934" fill="#499FDD"/>
<path d="M27.2542 21.0568C24.7973 21.0568 23.0878 19.1048 23.0878 16.3139C23.0878 13.525 24.7972 11.575 27.2561 11.575C29.727 11.575 31.4543 13.525 31.4543 16.3139C31.4543 19.1485 29.7648 21.0568 27.2542 21.0568V21.0568ZM27.2542 7.40663C22.0541 7.40663 18.2793 11.1536 18.2793 16.3139C18.2793 21.4762 22.0561 25.2212 27.2542 25.2212C32.4761 25.2212 36.2648 21.4762 36.2648 16.3159C36.2648 11.1536 32.4761 7.40663 27.2561 7.40663H27.2542ZM68.5723 16.7612C68.3913 16.4111 68.1626 16.088 67.8925 15.8011L67.7334 15.6361L67.9005 15.477C68.139 15.2246 68.3835 14.9264 68.618 14.5806L73.2098 7.75847H67.6361L64.1872 13.0957C63.9924 13.3819 63.5989 13.525 63.0086 13.525H62.2233V3.43502C62.2233 1.41742 60.9651 1.1431 59.6074 1.1431H57.2816L57.2876 24.9588H62.2253V17.8147H62.6885C63.251 17.8147 63.6326 17.8803 63.8095 18.1864L66.5328 23.3268C67.2941 24.7223 68.0515 24.9588 69.4787 24.9588H73.2615L70.4429 20.2994L68.5743 16.7612H68.5723ZM92.5411 7.36687C90.0286 7.36687 88.4263 8.484 87.5279 9.4282L87.2298 9.73035L87.1224 9.31888C86.86 8.30709 85.9695 7.7525 84.6317 7.7525H82.4192L82.4332 24.9528H87.337V17.0255C87.337 16.2503 87.4364 15.5784 87.6431 14.9642C88.1878 13.1056 89.7104 11.9507 91.6127 11.9507C93.1433 11.9507 93.7418 12.7597 93.7418 14.8469V22.3389C93.7418 24.12 94.5666 24.9528 96.3496 24.9528H98.6833L98.6754 14.012C98.6754 9.66674 96.5545 7.36886 92.5411 7.36886V7.36687ZM77.0144 7.75847H74.6907L74.7066 21.0588V24.9588H77.1854L77.2729 24.9628L78.4298 24.9588H79.5788V24.9528H79.5866L79.5966 10.3724C79.5966 8.61321 78.7558 7.76045 77.0165 7.76045L77.0144 7.75847ZM46.5138 21.0568C44.0569 21.0568 42.3454 19.1048 42.3454 16.3139C42.3454 13.525 44.057 11.575 46.5159 11.575C48.9807 11.575 50.7141 13.525 50.7141 16.3139C50.7141 19.1485 49.0245 21.0568 46.5159 21.0568H46.5138ZM46.5138 7.40663C41.3098 7.40663 37.533 11.1536 37.533 16.3139C37.533 21.4762 41.3099 25.2212 46.5159 25.2212C51.7298 25.2212 55.5264 21.4762 55.5264 16.3159C55.5264 11.1536 51.7298 7.40663 46.5159 7.40663" fill="#273B7D"/>
<path d="M151.618 21.0568C149.161 21.0568 147.448 19.1048 147.448 16.3139C147.448 13.525 149.161 11.575 151.618 11.575C154.087 11.575 155.818 13.525 155.818 16.3139C155.818 19.1485 154.129 21.0568 151.618 21.0568ZM151.618 7.40663C146.414 7.40663 142.639 11.1536 142.639 16.3139C142.639 21.4762 146.414 25.2212 151.618 25.2212C156.834 25.2212 160.629 21.4762 160.629 16.3159C160.629 11.1536 156.832 7.40663 151.618 7.40663" fill="#499FDD"/>
<path d="M109.014 20.2993C106.332 20.2993 105.378 17.9616 105.378 15.7691C105.378 14.803 105.623 11.6564 108.757 11.6564C110.314 11.6564 112.387 12.1016 112.387 15.9301C112.387 19.5419 110.552 20.2993 109.014 20.2993V20.2993ZM114.933 7.7126C114.003 7.7126 113.288 8.08431 112.928 8.76215L112.793 9.02454L112.566 8.82576C111.775 8.14196 110.356 7.32895 108.052 7.32895C103.466 7.32895 100.379 10.7738 100.379 15.8963C100.379 21.0169 103.573 24.5949 108.143 24.5949C109.704 24.5949 110.938 24.2291 111.916 23.4897L112.294 23.2054V23.6825C112.294 25.9804 110.809 27.2486 108.115 27.2486C106.805 27.2486 105.615 26.9305 104.816 26.6403C103.778 26.3263 103.166 26.5867 102.746 27.6302L102.357 28.5923L101.806 29.9997L102.146 30.1806C103.871 31.095 106.116 31.6416 108.143 31.6416C112.318 31.6416 117.196 29.5047 117.196 23.4897L117.213 7.7126H114.933" fill="#273B7D"/>
<path d="M8.99419 20.8597L5.00271 20.8557V16.085C5.00271 15.0633 5.39828 14.5346 6.27092 14.4113H8.99419C10.9363 14.4113 12.1925 15.6358 12.1945 17.6176C12.1925 19.6531 10.9681 20.8577 8.99419 20.8577V20.8597ZM5.00271 7.98678V6.7305C5.00271 5.63125 5.46787 5.10846 6.48761 5.04088H8.53109C10.2823 5.04088 11.3319 6.08844 11.3319 7.84366C11.3319 9.17945 10.6123 10.7399 8.59466 10.7399H5.00271V7.98678V7.98678ZM14.0909 12.7495L13.3693 12.344L13.9994 11.8053C14.7329 11.1752 15.9595 9.7579 15.9595 7.31292C15.9595 3.56793 13.0573 1.15077 8.56287 1.15077H2.84992C2.2071 1.17421 1.59797 1.44408 1.1487 1.90444C0.699439 2.36481 0.444509 2.98038 0.436768 3.62358V24.873H8.66418C13.6595 24.873 16.8837 22.1538 16.8837 17.9416C16.8837 15.6736 15.8422 13.7355 14.0909 12.7495" fill="#273B7D"/>
<path d="M182.532 7.42442C181.52 7.42815 180.521 7.65926 179.61 8.10069C178.699 8.54211 177.899 9.18257 177.269 9.97476L176.915 10.424L176.637 9.92109C175.726 8.26526 174.164 7.42442 171.991 7.42442C169.711 7.42442 168.183 8.69661 167.473 9.45197L167.008 9.95488L166.829 9.29294C166.57 8.33881 165.722 7.81602 164.438 7.81602H162.376L162.356 24.9508H167.038V17.3872C167.038 16.7233 167.121 16.0693 167.286 15.3835C167.733 13.5548 168.962 11.5888 171.027 11.7856C172.299 11.9089 172.923 12.8928 172.923 14.7932V24.9508H177.638V17.3872C177.638 16.5583 177.716 15.9381 177.903 15.3179C178.281 13.5727 179.565 11.7836 181.556 11.7836C183 11.7836 183.532 12.5986 183.532 14.7932V22.4461C183.532 24.1755 184.304 24.9508 186.035 24.9508H188.237L188.241 14.012C188.241 9.64081 186.317 7.42442 182.532 7.42442V7.42442ZM139.926 19.0013C139.912 19.0192 137.898 21.1422 135.245 21.1422C132.828 21.1422 130.387 19.6593 130.387 16.3496C130.387 13.4912 132.279 11.4934 134.99 11.4934C135.869 11.4934 136.871 11.8075 137.028 12.3382L137.05 12.4277C137.15 12.7931 137.368 13.1152 137.67 13.3441C137.972 13.5731 138.341 13.696 138.719 13.6939L141.284 13.6979V11.4557C141.284 8.49783 137.521 7.42442 134.99 7.42442C129.576 7.42442 125.648 11.1933 125.648 16.3854C125.648 21.5735 129.532 25.3384 134.891 25.3384C139.538 25.3384 142.067 22.2831 142.091 22.2533L142.226 22.0864L140.194 18.7171L139.926 19.0013" fill="#499FDD"/>
</g>
<defs>
<clipPath id="clip0_14_4">
<rect width="188.679" height="32" fill="white"/>
</clipPath>
</defs>
</svg>
