<svg width="99" height="32" viewBox="0 0 99 32" fill="none" xmlns="http://www.w3.org/2000/svg">
<g clip-path="url(#clip0_14_23)">
<path d="M12.0739 0.00292969H12.9458C15.9725 0.0687278 18.9498 1.28599 21.0883 3.44088C20.2987 4.24691 19.4927 5.02003 18.7196 5.82606C17.5187 4.74039 16.0712 3.90147 14.492 3.60537C12.1562 3.11189 9.63942 3.55603 7.68192 4.88844C5.54348 6.28665 4.09592 8.65538 3.78338 11.1886C3.43794 13.6889 4.14527 16.3209 5.77378 18.2619C7.33648 20.1536 9.72166 21.338 12.1891 21.4202C14.492 21.5518 16.8937 20.8445 18.5715 19.2324C19.8875 18.0974 20.4961 16.3702 20.6935 14.6924C17.9629 14.6924 15.2323 14.7088 12.5016 14.6924V11.3038H23.9999C24.592 14.9391 23.7367 19.035 20.9731 21.6341C19.1308 23.4764 16.5811 24.5621 13.9821 24.7759C11.4653 25.0227 8.86629 24.5456 6.62915 23.3284C3.94788 21.8972 1.80944 19.4792 0.756669 16.6334C-0.230303 14.0179 -0.246753 11.057 0.674421 8.42508C1.51335 6.02345 3.1254 3.90147 5.19804 2.42101C7.18844 0.957002 9.60652 0.150975 12.0739 0.00292969Z" fill="#3780FF"/>
<path d="M78.0366 0.858398H81.5568V24.3483C80.3889 24.3483 79.2045 24.3648 78.0366 24.3319C78.0531 16.5183 78.0366 8.68837 78.0366 0.858398V0.858398Z" fill="#38B137"/>
<path d="M31.8299 9.0009C34.0012 8.58966 36.3535 9.05025 38.1465 10.3498C39.775 11.5012 40.91 13.3107 41.2555 15.2846C41.6996 17.5711 41.1403 20.0714 39.6599 21.8809C38.0643 23.9042 35.4488 24.9898 32.8991 24.8253C30.5633 24.6937 28.2932 23.5258 26.9115 21.6177C25.3487 19.5121 24.9704 16.617 25.8258 14.1496C26.6812 11.5012 29.0992 9.47794 31.8299 9.0009V9.0009ZM32.3234 12.1263C31.4351 12.3566 30.6126 12.8665 30.0204 13.5903C28.4248 15.4985 28.5235 18.6074 30.2836 20.384C31.287 21.4038 32.8004 21.8809 34.1986 21.6012C35.4981 21.3709 36.6331 20.4991 37.2582 19.3476C38.3439 17.3902 38.0314 14.6924 36.37 13.1626C35.3007 12.1757 33.738 11.7644 32.3234 12.1263Z" fill="#FA3913"/>
<path d="M49.2663 9.00065C51.7502 8.52361 54.4644 9.21449 56.3232 10.9581C59.3499 13.6723 59.6789 18.7552 57.0963 21.8806C55.5336 23.8545 53.0004 24.9402 50.5 24.8251C48.1149 24.7593 45.7626 23.5749 44.3479 21.6174C42.7523 19.4625 42.4069 16.5016 43.3116 13.9848C44.2163 11.4187 46.5851 9.46123 49.2663 9.00065V9.00065ZM49.7598 12.126C48.8715 12.3563 48.0491 12.8663 47.4569 13.5736C45.8777 15.4488 45.9435 18.5084 47.6378 20.3014C48.6412 21.3707 50.2039 21.897 51.6515 21.601C52.9346 21.3542 54.086 20.4988 54.7111 19.3474C55.7803 17.3734 55.4678 14.6757 53.7899 13.1459C52.7207 12.1589 51.158 11.7642 49.7598 12.126Z" fill="#FCBD06"/>
<path d="M64.0545 9.95474C65.9462 8.77038 68.463 8.44139 70.5028 9.46126C71.1443 9.7409 71.6707 10.2179 72.1806 10.695C72.1971 10.2508 72.1806 9.79025 72.1971 9.32966C73.2992 9.34611 74.4013 9.32966 75.5199 9.34611V23.8546C75.5034 26.0424 74.9441 28.3618 73.365 29.9574C71.6378 31.7175 68.9894 32.2603 66.6042 31.8984C64.0545 31.5201 61.8339 29.6613 60.8469 27.309C61.8339 26.832 62.8702 26.4536 63.89 26.0095C64.4658 27.3583 65.6337 28.5098 67.0977 28.773C68.5617 29.0362 70.256 28.6743 71.2101 27.457C72.23 26.2069 72.23 24.4961 72.1806 22.9663C71.4239 23.7065 70.5521 24.3645 69.4993 24.6113C67.2129 25.2528 64.6961 24.4632 62.936 22.917C61.1594 21.3707 60.1067 18.9855 60.2054 16.6168C60.2547 13.9355 61.7681 11.353 64.0545 9.95474V9.95474ZM67.4596 12.0603C66.4562 12.2248 65.5186 12.7841 64.877 13.5572C63.3308 15.3995 63.3308 18.344 64.8935 20.1534C65.7817 21.2227 67.2129 21.8148 68.5946 21.6668C69.8941 21.5352 71.0949 20.7127 71.7365 19.5777C72.8221 17.6531 72.6412 15.0376 71.1772 13.3598C70.2725 12.3235 68.8249 11.8135 67.4596 12.0603V12.0603Z" fill="#3780FF"/>
<path d="M85.7844 10.7937C87.7583 8.95133 90.8015 8.32625 93.3348 9.29677C95.7364 10.2015 97.2662 12.488 98.0394 14.8403C94.4698 16.3207 90.9167 17.7847 87.3471 19.2652C87.8406 20.2028 88.5973 21.0582 89.6171 21.4036C91.0483 21.9136 92.759 21.7326 93.9599 20.7785C94.4369 20.4166 94.8152 19.9396 95.1771 19.479C96.0818 20.0877 96.9866 20.6798 97.8913 21.2885C96.6082 23.2131 94.4533 24.5619 92.1339 24.7758C89.5678 25.0883 86.8372 24.1013 85.1757 22.0945C82.4451 18.9362 82.7083 13.6394 85.7844 10.7937V10.7937ZM87.5445 13.8368C86.9852 14.6429 86.7549 15.6298 86.7714 16.6004C89.1566 15.6134 91.5418 14.6264 93.927 13.623C93.5322 12.7018 92.5781 12.1425 91.6076 11.9945C90.0448 11.7149 88.4163 12.5538 87.5445 13.8368V13.8368Z" fill="#FA3913"/>
</g>
<defs>
<clipPath id="clip0_14_23">
<rect width="98.0392" height="32" fill="white"/>
</clipPath>
</defs>
</svg>
