<svg width="151" height="32" viewBox="0 0 151 32" fill="none" xmlns="http://www.w3.org/2000/svg">
<g clip-path="url(#clip0_14_19)">
<path d="M149.531 21.381C149.064 21.381 148.685 21.7599 148.685 22.2263C148.685 22.6928 149.064 23.0716 149.531 23.0716C149.997 23.0716 150.376 22.6928 150.376 22.2263C150.376 21.7599 149.997 21.381 149.531 21.381V21.381ZM149.531 22.9376C149.137 22.9376 148.819 22.6176 148.819 22.2263C148.819 21.8331 149.139 21.5151 149.531 21.5151C149.924 21.5151 150.244 21.835 150.244 22.2263C150.244 22.6177 149.924 22.9376 149.531 22.9376ZM149.806 22.0816C149.806 21.9279 149.697 21.8367 149.536 21.8367H149.266V22.607H149.398V22.3282H149.543L149.682 22.607H149.825L149.672 22.2996C149.754 22.262 149.806 22.187 149.806 22.0816ZM149.531 22.2084H149.4V21.9529H149.531C149.62 21.9529 149.674 21.9976 149.674 22.0798C149.673 22.1638 149.618 22.2084 149.531 22.2084ZM47.6805 12.8263V10.7819H44.5461V22.9447H47.6805V15.6517C47.6805 14.3311 48.5276 13.6823 49.8483 13.6823H51.5639V10.782H50.0984C48.9511 10.7819 47.954 11.3806 47.6805 12.8263V12.8263ZM54.5 5.97119C53.4278 5.97119 52.6057 6.81827 52.6057 7.89051C52.6057 8.93772 53.4278 9.7848 54.5 9.7848C55.5722 9.7848 56.3943 8.93772 56.3943 7.89051C56.3942 6.81823 55.5722 5.97119 54.5 5.97119ZM52.9363 22.9447H56.0637V10.7819H52.9363V22.9447ZM70.9606 16.8633C70.9606 20.3356 68.146 23.1502 64.6737 23.1502C63.2726 23.1502 62.002 22.691 60.9834 21.9154V26.5153H57.856V10.7819H60.9834V11.8113C62.002 11.0357 63.2726 10.5764 64.6737 10.5764C68.146 10.5764 70.9606 13.3911 70.9606 16.8633V16.8633ZM67.8136 16.8633C67.8136 14.978 66.2839 13.4482 64.3985 13.4482C62.5131 13.4482 60.9834 14.978 60.9834 16.8633C60.9834 18.7487 62.5132 20.2784 64.3985 20.2784C66.2839 20.2784 67.8136 18.7505 67.8136 16.8633ZM125.316 15.7965L123.491 15.2961C122.29 14.9833 121.824 14.6152 121.824 13.9808C121.824 13.3625 122.482 12.93 123.422 12.93C124.317 12.93 125.019 13.5161 125.019 14.2667V14.3364H127.902V14.2667C127.902 12.0596 126.102 10.5764 123.422 10.5764C120.768 10.5764 118.84 12.0579 118.84 14.1005C118.84 15.6892 119.892 16.8865 121.729 17.3833L123.477 17.8604C124.805 18.2286 125.298 18.6361 125.298 19.367C125.298 20.1372 124.585 20.6554 123.523 20.6554C122.417 20.6554 121.672 19.9549 121.672 18.9148V18.8451H118.613V18.9148C118.613 21.4096 120.621 23.1537 123.498 23.1537C126.27 23.1537 128.282 21.4507 128.282 19.1061C128.282 17.9552 127.768 16.4505 125.316 15.7965V15.7965ZM82.0547 10.7819H85.182V22.9447H82.0547V21.9153C81.0361 22.6909 79.7654 23.1502 78.3644 23.1502C74.8922 23.1502 72.0776 20.3356 72.0776 16.8633C72.0776 13.391 74.8922 10.5764 78.3644 10.5764C79.7654 10.5764 81.0361 11.0357 82.0547 11.8112V10.7819ZM82.0547 16.8633C82.0547 14.9762 80.525 13.4482 78.6396 13.4482C76.7542 13.4482 75.2245 14.978 75.2245 16.8633C75.2245 18.7487 76.7542 20.2784 78.6396 20.2784C80.5267 20.2784 82.0547 18.7505 82.0547 16.8633ZM96.4745 6.45369H99.6019V22.9465H96.4745V21.9171C95.4558 22.6927 94.1853 23.152 92.7842 23.152C89.3119 23.152 86.4973 20.3374 86.4973 16.8651C86.4973 13.3928 89.3119 10.5782 92.7842 10.5782C94.1853 10.5782 95.4558 11.0374 96.4745 11.813V6.45369ZM96.4745 16.8633C96.4745 14.978 94.9447 13.4482 93.0594 13.4482C91.1741 13.4482 89.6443 14.978 89.6443 16.8633C89.6443 18.7487 91.1722 20.2784 93.0594 20.2784C94.9447 20.2784 96.4745 18.7505 96.4745 16.8633ZM114.122 22.9447H117.249V10.7819H114.122V22.9447ZM115.685 5.97119C114.613 5.97119 113.791 6.81827 113.791 7.89051C113.791 8.93772 114.613 9.7848 115.685 9.7848C116.758 9.7848 117.58 8.93772 117.58 7.89051C117.58 6.81823 116.758 5.97119 115.685 5.97119ZM141.8 16.8633C141.8 20.3356 138.985 23.1502 135.513 23.1502C132.041 23.1502 129.226 20.3356 129.226 16.8633C129.226 13.391 132.041 10.5764 135.513 10.5764C138.985 10.5764 141.8 13.3911 141.8 16.8633ZM138.928 16.8633C138.928 14.978 137.398 13.4482 135.513 13.4482C133.627 13.4482 132.098 14.978 132.098 16.8633C132.098 18.7487 133.626 20.2784 135.513 20.2784C137.398 20.2784 138.928 18.7505 138.928 16.8633ZM46.0793 6.45369H34.0828V9.24331H38.5236V22.9447H41.6403V9.24331H46.0811V6.45369H46.0793ZM106.748 19.6136L103.966 10.782H100.681L104.854 22.9447H108.618L112.815 10.782H109.531L106.748 19.6136ZM146.382 12.8263V10.7819H143.247V22.9447H146.382V15.6517C146.382 14.3311 147.229 13.6823 148.549 13.6823H150.265V10.782H148.8C147.652 10.7819 146.657 11.3806 146.382 12.8263Z" fill="black"/>
<path d="M15.9942 31.9943C24.8276 31.9943 31.9884 24.8334 31.9884 16.0001C31.9884 7.16671 24.8276 0.00585938 15.9942 0.00585938C7.16086 0.00585938 0 7.16671 0 16.0001C0 24.8334 7.16086 31.9943 15.9942 31.9943Z" fill="#34E0A1"/>
<path d="M25.8729 12.8797L27.803 10.7799H23.523C21.3803 9.31628 18.7926 8.46387 15.994 8.46387C13.1991 8.46387 10.6186 9.31812 8.47945 10.7799H4.18872L6.11875 12.8797C4.93573 13.9591 4.1941 15.5139 4.1941 17.2402C4.1941 20.498 6.83541 23.1392 10.0932 23.1392C11.6408 23.1392 13.0508 22.5424 14.1034 21.5666L15.9941 23.6253L17.8848 21.5684C18.9374 22.5442 20.3456 23.1392 21.8932 23.1392C25.151 23.1392 27.7958 20.498 27.7958 17.2402C27.7976 15.5121 27.056 13.9573 25.8729 12.8797V12.8797ZM10.095 21.2324C7.88971 21.2324 6.1027 19.4454 6.1027 17.2402C6.1027 15.0349 7.88976 13.2478 10.095 13.2478C12.3002 13.2478 14.0872 15.0349 14.0872 17.2402C14.0872 19.4454 12.3002 21.2324 10.095 21.2324V21.2324ZM15.9958 17.124C15.9958 14.497 14.0855 12.2417 11.5639 11.2785C12.9275 10.7084 14.4232 10.3921 15.994 10.3921C17.5649 10.3921 19.0624 10.7084 20.426 11.2785C17.9062 12.2435 15.9958 14.497 15.9958 17.124ZM21.895 21.2324C19.6897 21.2324 17.9026 19.4454 17.9026 17.2402C17.9026 15.0349 19.6897 13.2478 21.895 13.2478C24.1002 13.2478 25.8872 15.0349 25.8872 17.2402C25.8872 19.4454 24.1002 21.2324 21.895 21.2324V21.2324ZM21.895 15.1457C20.7387 15.1457 19.8023 16.0821 19.8023 17.2384C19.8023 18.3946 20.7387 19.331 21.895 19.331C23.0512 19.331 23.9876 18.3946 23.9876 17.2384C23.9876 16.0839 23.0512 15.1457 21.895 15.1457ZM12.1876 17.2402C12.1876 18.3964 11.2512 19.3328 10.095 19.3328C8.93877 19.3328 8.00233 18.3964 8.00233 17.2402C8.00233 16.0839 8.93877 15.1475 10.095 15.1475C11.2512 15.1457 12.1876 16.0839 12.1876 17.2402Z" fill="black"/>
</g>
<defs>
<clipPath id="clip0_14_19">
<rect width="150.376" height="32" fill="white"/>
</clipPath>
</defs>
</svg>
