<?xml version="1.0" encoding="UTF-8"?>
<svg xmlns="http://www.w3.org/2000/svg" xmlns:xlink="http://www.w3.org/1999/xlink" viewBox="0 0 50 50" width="50px" height="50px">
<g id="surface2585639">
<path style="fill-rule:nonzero;fill:rgb(100%,100%,100%);fill-opacity:1;stroke-width:10;stroke-linecap:butt;stroke-linejoin:round;stroke:rgb(0%,0%,0%);stroke-opacity:1;stroke-miterlimit:10;" d="M 86.000001 81.051588 L 145.452051 21.613757 L 150.386245 26.54795 L 90.948413 86.000001 L 150.386245 145.452051 L 145.452051 150.386245 L 86.000001 90.948413 L 26.54795 150.386245 L 21.613757 145.452051 L 81.051588 86.000001 L 21.613757 26.54795 L 26.54795 21.613757 Z M 86.000001 81.051588 " transform="matrix(0.274709,0,0,0.274709,1.375,1.375)"/>
<path style=" stroke:none;fill-rule:nonzero;fill:rgb(100%,100%,100%);fill-opacity:1;" d="M 8.667969 7.3125 L 7.3125 8.667969 L 23.640625 25 L 7.3125 41.332031 L 8.667969 42.6875 L 25 26.359375 L 41.332031 42.6875 L 42.6875 41.332031 L 26.359375 25 L 42.6875 8.667969 L 41.332031 7.3125 L 25 23.640625 Z M 8.667969 7.3125 "/>
</g>
</svg>
