<?xml version="1.0" standalone="no"?>
<!DOCTYPE svg PUBLIC "-//W3C//DTD SVG 20010904//EN"
 "http://www.w3.org/TR/2001/REC-SVG-20010904/DTD/svg10.dtd">
<svg version="1.0" xmlns="http://www.w3.org/2000/svg"
 width="508.000000pt" height="108.000000pt" viewBox="0 0 508.000000 108.000000"
 preserveAspectRatio="xMidYMid meet">

<g transform="translate(0.000000,108.000000) scale(0.100000,-0.100000)"
fill="#000000" stroke="none">
<path d="M2230 1040 c0 -5 -7 -10 -15 -10 -8 0 -15 -7 -15 -15 0 -9 -9 -15
-25 -15 -14 0 -25 -4 -25 -10 0 -5 11 -10 25 -10 14 0 25 5 25 10 0 6 18 10
40 10 29 0 40 4 40 15 0 10 11 15 35 15 19 0 35 5 35 10 0 6 -27 10 -60 10
-33 0 -60 -4 -60 -10z"/>
<path d="M2230 965 c0 -11 -12 -15 -50 -15 -27 0 -50 -4 -50 -10 0 -5 -11 -10
-25 -10 -16 0 -25 -6 -25 -15 0 -9 9 -15 25 -15 16 0 25 6 25 15 0 12 13 15
60 15 33 0 60 4 60 10 0 6 28 10 65 10 51 0 65 3 65 15 0 12 -15 15 -75 15
-60 0 -75 -3 -75 -15z"/>
<path d="M2030 890 c0 -5 5 -10 10 -10 6 0 10 5 10 10 0 6 -4 10 -10 10 -5 0
-10 -4 -10 -10z"/>
<path d="M1980 865 c0 -8 5 -15 10 -15 6 0 10 7 10 15 0 8 -4 15 -10 15 -5 0
-10 -7 -10 -15z"/>
<path d="M2150 740 c0 -5 7 -10 15 -10 8 0 15 5 15 10 0 6 -7 10 -15 10 -8 0
-15 -4 -15 -10z"/>
<path d="M2080 715 c0 -8 -7 -15 -15 -15 -8 0 -15 -4 -15 -10 0 -5 7 -10 15
-10 8 0 15 5 15 10 0 6 11 10 25 10 16 0 25 6 25 15 0 9 -9 15 -25 15 -16 0
-25 -6 -25 -15z"/>
<path d="M1780 690 c0 -5 5 -10 10 -10 6 0 10 5 10 10 0 6 -4 10 -10 10 -5 0
-10 -4 -10 -10z"/>
<path d="M2030 640 c0 -5 5 -10 10 -10 6 0 10 5 10 10 0 6 -4 10 -10 10 -5 0
-10 -4 -10 -10z"/>
<path d="M1750 590 c0 -29 4 -40 15 -40 11 0 15 11 15 40 0 29 -4 40 -15 40
-11 0 -15 -11 -15 -40z"/>
</g>
</svg>
